mtllib ARLessonModels.mtl
o CubeSixFaces
v -0.050000 -0.050000 0.050000
v 0.050000 -0.050000 0.050000
v 0.050000 0.050000 0.050000
v -0.050000 0.050000 0.050000
v 0.050000 -0.050000 -0.050000
v -0.050000 -0.050000 -0.050000
v -0.050000 0.050000 -0.050000
v 0.050000 0.050000 -0.050000
vn 0.000000 0.000000 1.000000
vn 0.000000 0.000000 -1.000000
vn -1.000000 0.000000 0.000000
vn 1.000000 0.000000 0.000000
vn 0.000000 1.000000 0.000000
vn 0.000000 -1.000000 0.000000
usemtl cube_front
f 1//1 2//1 3//1 4//1
usemtl cube_back
f 5//2 6//2 7//2 8//2
usemtl cube_left
f 6//3 1//3 4//3 7//3
usemtl cube_right
f 2//4 5//4 8//4 3//4
usemtl cube_top
f 4//5 3//5 8//5 7//5
usemtl cube_bottom
f 6//6 5//6 2//6 1//6
