mtllib ARLessonModels.mtl
o PhysicsBall
v 0.000000 0.060000 0.000000
v 0.000000 -0.060000 0.000000
v -0.060000 0.000000 0.000000
v 0.060000 0.000000 0.000000
v 0.000000 0.000000 0.060000
v 0.000000 0.000000 -0.060000
vn 0.000000 0.707107 0.707107
vn 0.707107 0.707107 0.000000
vn 0.000000 0.707107 -0.707107
vn -0.707107 0.707107 0.000000
vn 0.000000 -0.707107 0.707107
vn 0.707107 -0.707107 0.000000
vn 0.000000 -0.707107 -0.707107
vn -0.707107 -0.707107 0.000000
usemtl physics_red
f 1//1 5//1 4//1
f 1//2 4//2 6//2
f 1//3 6//3 3//3
f 1//4 3//4 5//4
f 2//5 4//5 5//5
f 2//6 6//6 4//6
f 2//7 3//7 6//7
f 2//8 5//8 3//8
